<svg version="1.0" xmlns="http://www.w3.org/2000/svg"
 width="70.000000pt" height="69.000000pt" viewBox="0 0 80.000000 79.000000"
 preserveAspectRatio="xMidYMid meet">
<g transform="translate(0.000000,79.000000) scale(0.100000,-0.100000)"
fill="#ffffff" stroke="none">
<path d="M326 770 c-113 -20 -231 -114 -284 -227 -23 -50 -27 -71 -27 -153 0
-88 3 -101 33 -162 121 -247 444 -301 633 -107 69 71 101 145 107 245 5 97
-12 163 -65 242 -83 123 -245 189 -397 162z m237 -48 c158 -78 246 -256 204
-415 -39 -150 -169 -268 -310 -284 l-52 -6 43 30 c136 93 228 231 201 301 -22
59 -76 94 -221 147 -42 15 -85 36 -94 46 -15 17 -16 22 -3 46 11 20 86 83 168
140 2 2 1 6 -2 10 -11 10 -148 -62 -189 -100 -90 -82 -51 -151 119 -207 175
-59 149 -115 -115 -247 l-152 -77 -31 30 c-39 37 -83 124 -98 193 -28 134 51
304 176 378 71 41 121 53 210 50 67 -3 92 -9 146 -35z"/>
</g>
</svg>