<?xml version="1.0" encoding="UTF-8" standalone="no"?>
<svg width="472px" height="387px" viewBox="0 0 472 387" version="1.1" xmlns="http://www.w3.org/2000/svg" xmlns:xlink="http://www.w3.org/1999/xlink">
    <!-- Generator: Sketch 3.7.2 (28276) - http://www.bohemiancoding.com/sketch -->
    <title>chalet</title>
    <desc>Created with Sketch.</desc>
    <defs></defs>
    <g id="Page-1" stroke="none" stroke-width="1" fill="none" fill-rule="evenodd">
        <g id="chalet" fill="#FFFFFF">
            <g id="Group">
                <path d="M469.467,273.082 L397.024,216.024 C394.846,214.308 391.777,214.308 389.599,216.024 L317.156,273.082 C314.552,275.132 314.105,278.905 316.155,281.508 C318.205,284.112 321.978,284.56 324.581,282.509 L328.777,279.204 L328.777,338.643 L301.347,331.244 L301.347,236.751 L305.543,240.056 C306.643,240.923 307.952,241.343 309.251,241.343 C311.026,241.343 312.785,240.558 313.968,239.055 C316.018,236.452 315.571,232.68 312.967,230.629 L240.524,173.571 C238.346,171.855 235.277,171.855 233.099,173.571 L160.656,230.629 C158.052,232.679 157.605,236.452 159.655,239.055 C161.705,241.659 165.478,242.108 168.081,240.056 L172.277,236.751 L172.277,296.429 L144.847,289.03 L144.847,194.298 L149.043,197.603 C150.143,198.47 151.452,198.89 152.751,198.89 C154.526,198.89 156.285,198.105 157.468,196.602 C159.518,193.999 159.071,190.227 156.467,188.176 L84.024,131.118 C81.846,129.402 78.777,129.402 76.599,131.118 L4.156,188.177 C1.552,190.227 1.105,194 3.155,196.603 C5.205,199.207 8.978,199.655 11.581,197.604 L15.777,194.299 L15.777,254.216 L7.564,252 C4.367,251.139 1.072,253.031 0.209,256.23 C-0.654,259.429 1.24,262.723 4.439,263.585 L460.416,386.58 C460.939,386.721 461.465,386.788 461.982,386.788 C464.627,386.788 467.049,385.025 467.771,382.349 C468.634,379.15 466.74,375.856 463.541,374.994 L457.846,373.458 L457.846,279.204 L462.042,282.509 C463.142,283.376 464.451,283.796 465.75,283.796 C467.525,283.796 469.284,283.011 470.467,281.508 C472.518,278.905 472.07,275.133 469.467,273.082 L469.467,273.082 Z M80.311,143.47 L110.315,167.101 L50.307,167.101 L80.311,143.47 L80.311,143.47 Z M132.846,285.794 L76.502,270.596 L132.846,270.596 L132.846,285.794 L132.846,285.794 Z M132.846,258.596 L32.014,258.596 L27.776,257.453 L27.776,240.096 L50.312,240.096 L50.312,248.094 C50.312,251.407 52.999,254.094 56.312,254.094 L104.31,254.094 C107.623,254.094 110.31,251.407 110.31,248.094 L110.31,240.096 L132.846,240.096 L132.846,258.596 L132.846,258.596 Z M62.312,242.094 L62.312,225.595 L98.31,225.595 L98.31,242.094 L62.312,242.094 L62.312,242.094 Z M132.846,228.096 L110.31,228.096 L110.31,219.596 C110.31,216.283 107.623,213.596 104.31,213.596 L56.312,213.596 C52.999,213.596 50.312,216.283 50.312,219.596 L50.312,228.096 L27.776,228.096 L27.776,209.597 L132.846,209.597 L132.846,228.096 L132.846,228.096 Z M132.846,197.596 L27.776,197.596 L27.776,184.847 L35.071,179.101 L125.55,179.101 L132.845,184.847 L132.845,197.596 L132.846,197.596 Z M236.811,185.923 L266.815,209.554 L206.808,209.554 L236.811,185.923 L236.811,185.923 Z M289.346,328.008 L233.889,313.049 L289.346,313.049 L289.346,328.008 L289.346,328.008 Z M289.346,301.049 L189.401,301.049 L184.276,299.667 L184.276,282.549 L206.812,282.549 L206.812,290.547 C206.812,293.86 209.499,296.547 212.812,296.547 L260.81,296.547 C264.123,296.547 266.81,293.86 266.81,290.547 L266.81,282.549 L289.346,282.549 L289.346,301.049 L289.346,301.049 Z M218.812,284.546 L218.812,268.047 L254.81,268.047 L254.81,284.546 L218.812,284.546 L218.812,284.546 Z M289.346,270.549 L266.81,270.549 L266.81,262.048 C266.81,258.735 264.123,256.048 260.81,256.048 L212.812,256.048 C209.499,256.048 206.812,258.735 206.812,262.048 L206.812,270.549 L184.276,270.549 L184.276,252.049 L289.346,252.049 L289.346,270.549 L289.346,270.549 Z M289.346,240.049 L184.276,240.049 L184.276,227.3 L191.571,221.554 L282.05,221.554 L289.345,227.3 L289.345,240.049 L289.346,240.049 Z M393.311,228.376 L423.315,252.007 L363.308,252.007 L393.311,228.376 L393.311,228.376 Z M445.846,370.221 L391.274,355.501 L445.846,355.501 L445.846,370.221 L445.846,370.221 Z M445.846,343.501 L346.786,343.501 L340.776,341.88 L340.776,325.001 L363.312,325.001 L363.312,332.999 C363.312,336.312 365.999,338.999 369.312,338.999 L417.31,338.999 C420.623,338.999 423.31,336.312 423.31,332.999 L423.31,325.001 L445.846,325.001 L445.846,343.501 L445.846,343.501 Z M375.312,326.999 L375.312,310.5 L411.31,310.5 L411.31,326.999 L375.312,326.999 L375.312,326.999 Z M445.846,313.001 L423.31,313.001 L423.31,304.501 C423.31,301.188 420.623,298.501 417.31,298.501 L369.312,298.501 C365.999,298.501 363.312,301.188 363.312,304.501 L363.312,313.001 L340.776,313.001 L340.776,294.501 L445.846,294.501 L445.846,313.001 L445.846,313.001 Z M445.846,282.501 L340.776,282.501 L340.776,269.753 L348.071,264.007 L438.55,264.007 L445.845,269.753 L445.845,282.501 L445.846,282.501 Z" id="Shape"></path>
                <path d="M9.866,137.086 L95.427,65.057 L117.699,82.259 C118.777,83.092 120.071,83.51 121.367,83.51 C122.569,83.51 123.772,83.15 124.807,82.425 L151.365,63.835 L177.922,82.425 C180.043,83.91 182.876,83.867 184.95,82.32 L210.896,62.971 L300.621,137.12 C301.74,138.045 303.094,138.495 304.44,138.495 C306.168,138.495 307.882,137.753 309.068,136.317 C311.179,133.763 310.819,129.981 308.265,127.87 L259.356,87.451 L270.022,75.496 L289.542,95.944 C290.721,97.179 292.3,97.801 293.883,97.801 C295.366,97.801 296.853,97.254 298.013,96.153 L320.893,74.431 L343.773,96.153 C346.142,98.401 349.874,98.343 352.17,96.02 L375.924,71.994 L461.379,163.05 C462.56,164.308 464.155,164.944 465.755,164.944 C467.227,164.944 468.702,164.406 469.86,163.319 C472.277,161.051 472.397,157.255 470.129,154.838 L327.498,2.859 C326.346,1.631 324.738,0.95 323.047,0.965 C321.363,0.986 319.766,1.714 318.646,2.97 L250.1,79.803 L157.664,3.414 C155.429,1.567 152.195,1.582 149.977,3.449 L2.137,127.907 C-0.398,130.041 -0.723,133.826 1.411,136.361 C3.545,138.895 7.33,139.22 9.866,137.086 L9.866,137.086 Z M323.235,15.853 L367.707,63.239 L347.771,83.403 L325.024,61.808 C322.709,59.61 319.078,59.61 316.762,61.808 L294.091,83.331 L278.037,66.514 L323.235,15.853 L323.235,15.853 Z M153.877,15.852 L201.374,55.103 L181.251,70.109 L154.805,51.597 C152.739,50.151 149.99,50.15 147.923,51.597 L121.54,70.065 L104.82,57.15 L153.877,15.852 L153.877,15.852 Z" id="Shape"></path>
            </g>
        </g>
    </g>
</svg>