<?xml version="1.0" encoding="UTF-8" standalone="no"?>
<svg width="612px" height="612px" viewBox="0 0 612 612" version="1.1" xmlns="http://www.w3.org/2000/svg" xmlns:xlink="http://www.w3.org/1999/xlink">
    <!-- Generator: Sketch 3.7.2 (28276) - http://www.bohemiancoding.com/sketch -->
    <title>other</title>
    <desc>Created with Sketch.</desc>
    <defs></defs>
    <g id="Page-1" stroke="none" stroke-width="1" fill="none" fill-rule="evenodd">
        <g id="other" fill="#FFFFFF">
            <g id="Group">
                <path d="M306.022,612 L306.022,598.016 L306,612 C137.27,612 0,474.725 0,305.995 C0,137.27 137.27,0 306,0 C474.73,0 612,137.27 612,305.995 C612,474.725 474.735,612 306.022,612 L306.022,612 Z M306,27.97 C152.692,27.97 27.97,152.693 27.97,305.995 C27.97,459.302 152.692,584.03 306,584.03 L306.022,584.03 C459.312,584.03 584.03,459.301 584.03,305.994 C584.03,152.692 459.308,27.97 306,27.97 L306,27.97 Z" id="Shape"></path>
                <g transform="translate(221.000000, 142.000000)">
                    <path d="M85,228.409 C77.275,228.409 71.015,222.149 71.015,214.424 L71.015,155.229 C71.015,147.504 77.275,141.244 85,141.244 C115.951,141.244 141.13,116.066 141.13,85.115 C141.13,54.158 115.951,28.969 85,28.969 C54.049,28.969 28.865,54.158 28.865,85.115 C28.865,92.84 22.605,99.1 14.88,99.1 C7.155,99.1 0.895,92.84 0.895,85.115 C0.895,38.736 38.626,0.999 85,0.999 C131.374,0.999 169.1,38.736 169.1,85.115 C169.1,126.723 138.725,161.372 98.986,168.051 L98.986,214.425 C98.984,222.149 92.726,228.409 85,228.409 L85,228.409 Z" id="Shape"></path>
                    <circle id="Oval" cx="84.995" cy="291.743" r="23.03"></circle>
                </g>
            </g>
        </g>
    </g>
</svg>