<?xml version="1.0" encoding="UTF-8" standalone="no"?>
<svg width="41px" height="41px" viewBox="0 0 41 41" version="1.1" xmlns="http://www.w3.org/2000/svg" xmlns:xlink="http://www.w3.org/1999/xlink">
    <!-- Generator: Sketch 3.7.2 (28276) - http://www.bohemiancoding.com/sketch -->
    <title>restaurant</title>
    <desc>Created with Sketch.</desc>
    <defs>
        <filter x="-50%" y="-50%" width="200%" height="200%" filterUnits="objectBoundingBox" id="filter-1">
            <feOffset dx="0" dy="2" in="SourceAlpha" result="shadowOffsetOuter1"></feOffset>
            <feGaussianBlur stdDeviation="2" in="shadowOffsetOuter1" result="shadowBlurOuter1"></feGaussianBlur>
            <feColorMatrix values="0 0 0 0 0   0 0 0 0 0   0 0 0 0 0  0 0 0 0.5 0" type="matrix" in="shadowBlurOuter1" result="shadowMatrixOuter1"></feColorMatrix>
            <feMerge>
                <feMergeNode in="shadowMatrixOuter1"></feMergeNode>
                <feMergeNode in="SourceGraphic"></feMergeNode>
            </feMerge>
        </filter>
    </defs>
    <g id="Page-1" stroke="none" stroke-width="1" fill="none" fill-rule="evenodd">
        <g id="restaurant" transform="translate(4.000000, 2.000000)" fill="#FFFFFF">
            <g id="Group" filter="url(#filter-1)">
                <path d="M29.3,15.817 C27.936,15.817 26.742,15.075 26.1,13.974 C25.458,15.076 24.264,15.817 22.9,15.817 C21.536,15.817 20.341,15.075 19.7,13.974 C19.059,15.076 17.865,15.817 16.501,15.817 C15.137,15.817 13.942,15.075 13.301,13.974 C12.659,15.076 11.465,15.817 10.099,15.817 C8.735,15.817 7.541,15.075 6.899,13.974 C6.257,15.076 5.063,15.817 3.699,15.817 C1.66,15.817 0,14.158 0,12.119 L0,7.195 C0,7.133 0.012,7.071 0.034,7.013 L2.397,0.958 C2.472,0.766 2.657,0.64 2.863,0.64 L30.136,0.64 C30.342,0.64 30.527,0.766 30.602,0.958 L32.965,7.013 C32.988,7.071 33,7.133 33,7.195 L33,12.119 C33,14.158 31.34,15.817 29.3,15.817 L29.3,15.817 Z M26.101,11.619 C26.377,11.619 26.601,11.843 26.601,12.119 C26.601,13.607 27.812,14.817 29.301,14.817 C30.79,14.817 32.001,13.607 32.001,12.119 L32.001,7.289 L29.796,1.64 L3.205,1.64 L1,7.289 L1,12.119 C1,13.607 2.211,14.817 3.699,14.817 C5.188,14.817 6.399,13.607 6.399,12.119 C6.399,11.843 6.623,11.619 6.899,11.619 C7.175,11.619 7.399,11.843 7.399,12.119 C7.399,13.607 8.61,14.817 10.099,14.817 C11.589,14.817 12.801,13.607 12.801,12.119 C12.801,11.843 13.025,11.619 13.301,11.619 C13.577,11.619 13.801,11.843 13.801,12.119 C13.801,13.607 15.012,14.817 16.501,14.817 C17.989,14.817 19.2,13.607 19.2,12.119 C19.2,11.843 19.424,11.619 19.7,11.619 C19.976,11.619 20.2,11.843 20.2,12.119 C20.2,13.607 21.411,14.817 22.9,14.817 C24.389,14.817 25.6,13.607 25.6,12.119 C25.601,11.843 25.824,11.619 26.101,11.619 L26.101,11.619 Z" id="Shape"></path>
                <path d="M28.39,32.361 L4.611,32.361 C3.412,32.361 2.437,31.386 2.437,30.187 L2.437,19.651 C2.437,19.375 2.661,19.151 2.937,19.151 C3.213,19.151 3.437,19.375 3.437,19.651 L3.437,30.187 C3.437,30.834 3.963,31.361 4.611,31.361 L28.39,31.361 C29.038,31.361 29.565,30.835 29.565,30.187 L29.565,19.651 C29.565,19.375 29.789,19.151 30.065,19.151 C30.341,19.151 30.565,19.375 30.565,19.651 L30.565,30.187 C30.564,31.385 29.589,32.361 28.39,32.361 L28.39,32.361 Z" id="Shape"></path>
                <g transform="translate(6.000000, 18.000000)" id="Shape">
                    <path d="M8.433,14.16 L1.194,14.16 C0.918,14.16 0.694,13.936 0.694,13.66 L0.694,1.306 C0.694,1.03 0.918,0.806 1.194,0.806 L8.432,0.806 C8.708,0.806 8.932,1.03 8.932,1.306 L8.932,13.66 C8.933,13.936 8.709,14.16 8.433,14.16 L8.433,14.16 Z M1.694,13.16 L7.932,13.16 L7.932,1.806 L1.694,1.806 L1.694,13.16 L1.694,13.16 Z"></path>
                    <path d="M19.805,8.38 L11.239,8.38 C10.963,8.38 10.739,8.156 10.739,7.88 L10.739,1.307 C10.739,1.031 10.963,0.807 11.239,0.807 L19.805,0.807 C20.081,0.807 20.305,1.031 20.305,1.307 L20.305,7.88 C20.305,8.156 20.081,8.38 19.805,8.38 L19.805,8.38 Z M11.738,7.38 L19.304,7.38 L19.304,1.807 L11.738,1.807 L11.738,7.38 L11.738,7.38 Z"></path>
                </g>
            </g>
        </g>
    </g>
</svg>