<?xml version="1.0" encoding="iso-8859-1"?>
<!-- Generator: Adobe Illustrator 18.0.0, SVG Export Plug-In . SVG Version: 6.00 Build 0)  -->
<!DOCTYPE svg PUBLIC "-//W3C//DTD SVG 1.1//EN" "http://www.w3.org/Graphics/SVG/1.1/DTD/svg11.dtd">
<svg version="1.1" id="Capa_1" xmlns="http://www.w3.org/2000/svg" xmlns:xlink="http://www.w3.org/1999/xlink" x="0px" y="0px"
	 viewBox="0 0 471.755 471.755" style="enable-background:new 0 0 471.755 471.755;" xml:space="preserve">
<g>
	<path d="M469.467,315.082l-72.443-57.058c-2.178-1.716-5.247-1.716-7.425,0l-72.443,57.058c-2.604,2.05-3.051,5.823-1.001,8.426
		c2.05,2.604,5.823,3.052,8.426,1.001l4.196-3.305v59.439l-27.43-7.399v-94.493l4.196,3.305c1.1,0.867,2.409,1.287,3.708,1.287
		c1.775,0,3.534-0.785,4.717-2.288c2.05-2.603,1.603-6.375-1.001-8.426l-72.443-57.058c-2.178-1.716-5.247-1.716-7.425,0
		l-72.443,57.058c-2.604,2.05-3.051,5.823-1.001,8.426c2.05,2.604,5.823,3.053,8.426,1.001l4.196-3.305v59.678l-27.43-7.399v-94.732
		l4.196,3.305c1.1,0.867,2.409,1.287,3.708,1.287c1.775,0,3.534-0.785,4.717-2.288c2.05-2.603,1.603-6.375-1.001-8.426
		l-72.443-57.058c-2.178-1.716-5.247-1.716-7.425,0L4.156,230.177c-2.604,2.05-3.051,5.823-1.001,8.426
		c2.05,2.604,5.823,3.052,8.426,1.001l4.196-3.305v59.917L7.564,294c-3.197-0.861-6.492,1.031-7.355,4.23
		c-0.863,3.199,1.031,6.493,4.23,7.355L460.416,428.58c0.523,0.141,1.049,0.208,1.566,0.208c2.645,0,5.067-1.763,5.789-4.439
		c0.863-3.199-1.031-6.493-4.23-7.355l-5.695-1.536v-94.254l4.196,3.305c1.1,0.867,2.409,1.287,3.708,1.287
		c1.775,0,3.534-0.785,4.717-2.288C472.518,320.905,472.07,317.133,469.467,315.082z M80.311,185.47l30.004,23.631H50.307
		L80.311,185.47z M132.846,327.794l-56.344-15.198h56.344V327.794z M132.846,300.596H32.014l-4.238-1.143v-17.357h22.536v7.998
		c0,3.313,2.687,6,6,6h47.998c3.313,0,6-2.687,6-6v-7.998h22.536V300.596z M62.312,284.094v-16.499H98.31v16.499H62.312z
		 M132.846,270.096H110.31v-8.5c0-3.313-2.687-6-6-6H56.312c-3.313,0-6,2.687-6,6v8.5H27.776v-18.499h105.07V270.096z
		 M132.846,239.596H27.776v-12.749l7.295-5.746h90.479l7.295,5.746V239.596z M236.811,227.923l30.004,23.631h-60.007
		L236.811,227.923z M289.346,370.008l-55.457-14.959h55.457V370.008z M289.346,343.049h-99.945l-5.125-1.382v-17.118h22.536v7.998
		c0,3.313,2.687,6,6,6h47.998c3.313,0,6-2.687,6-6v-7.998h22.536V343.049z M218.812,326.546v-16.499h35.998v16.499H218.812z
		 M289.346,312.549H266.81v-8.501c0-3.313-2.687-6-6-6h-47.998c-3.313,0-6,2.687-6,6v8.501h-22.536v-18.5h105.07V312.549z
		 M289.346,282.049h-105.07V269.3l7.295-5.746h90.479l7.295,5.746V282.049z M393.311,270.376l30.004,23.631h-60.007L393.311,270.376
		z M445.846,412.221l-54.572-14.72h54.572V412.221z M445.846,385.501h-99.06l-6.01-1.621v-16.879h22.536v7.998c0,3.313,2.687,6,6,6
		h47.998c3.313,0,6-2.687,6-6v-7.998h22.536V385.501z M375.312,368.999v-16.499h35.998v16.499H375.312z M445.846,355.001H423.31
		v-8.5c0-3.313-2.687-6-6-6h-47.998c-3.313,0-6,2.687-6,6v8.5h-22.536v-18.5h105.07V355.001z M445.846,324.501h-105.07v-12.748
		l7.295-5.746h90.479l7.295,5.746V324.501z"/>
	<path d="M9.866,179.086l85.561-72.029l22.272,17.202c1.078,0.833,2.372,1.251,3.668,1.251c1.202,0,2.405-0.36,3.44-1.085
		l26.558-18.59l26.557,18.59c2.121,1.485,4.954,1.442,7.028-0.105l25.946-19.349l89.725,74.149c1.119,0.925,2.473,1.375,3.819,1.375
		c1.728,0,3.442-0.742,4.628-2.178c2.111-2.554,1.751-6.336-0.803-8.447l-48.909-40.419l10.666-11.955l19.52,20.448
		c1.179,1.235,2.758,1.857,4.341,1.857c1.483,0,2.97-0.547,4.13-1.648l22.88-21.722l22.88,21.722
		c2.369,2.248,6.101,2.19,8.397-0.133l23.754-24.026l85.455,91.056c1.181,1.258,2.776,1.894,4.376,1.894
		c1.472,0,2.947-0.538,4.105-1.625c2.417-2.268,2.537-6.064,0.269-8.481L327.498,44.859c-1.152-1.228-2.76-1.909-4.451-1.894
		c-1.684,0.021-3.281,0.749-4.401,2.005L250.1,121.803l-92.436-76.389c-2.235-1.847-5.469-1.832-7.687,0.035L2.137,169.907
		c-2.535,2.134-2.86,5.919-0.726,8.454C3.545,180.895,7.33,181.22,9.866,179.086z M323.235,57.853l44.472,47.386l-19.936,20.164
		l-22.747-21.595c-2.315-2.198-5.946-2.198-8.262,0l-22.671,21.523l-16.054-16.817L323.235,57.853z M153.877,57.852l47.497,39.251
		l-20.123,15.006l-26.446-18.512c-2.066-1.446-4.815-1.447-6.882,0l-26.383,18.468L104.82,99.15L153.877,57.852z"/>
</g>
<g>
</g>
<g>
</g>
<g>
</g>
<g>
</g>
<g>
</g>
<g>
</g>
<g>
</g>
<g>
</g>
<g>
</g>
<g>
</g>
<g>
</g>
<g>
</g>
<g>
</g>
<g>
</g>
<g>
</g>
</svg>
