<?xml version="1.0" encoding="iso-8859-1"?>
<!-- Generator: Adobe Illustrator 16.0.0, SVG Export Plug-In . SVG Version: 6.00 Build 0)  -->
<!DOCTYPE svg PUBLIC "-//W3C//DTD SVG 1.1//EN" "http://www.w3.org/Graphics/SVG/1.1/DTD/svg11.dtd">
<svg version="1.1" id="Capa_1" xmlns="http://www.w3.org/2000/svg" xmlns:xlink="http://www.w3.org/1999/xlink" x="0px" y="0px"
	 width="564.76px" height="564.76px" viewBox="0 0 564.76 564.76" style="enable-background:new 0 0 564.76 564.76;"
	 xml:space="preserve">
<g>
	<g>
		<path d="M458.149,72.602h-83.415v35.153v12.497c0,12.485-4.676,23.751-13.52,32.589c-8.844,8.843-20.116,13.519-32.589,13.519
			h-92.498c-12.472,0-23.739-4.676-32.583-13.513c-8.85-8.844-13.525-20.11-13.525-32.595v-12.497V72.602h-83.416
			c-4.761,0-8.886,1.738-12.362,5.214c-3.477,3.488-5.221,7.607-5.221,12.356v457.011c0,4.754,1.738,8.879,5.221,12.355
			c3.476,3.477,7.595,5.221,12.362,5.221h117.437c-0.428-2.02-0.691-4.1-0.691-6.285V529.6v-51.162
			c0-7.98,2.907-14.896,8.758-20.754c5.838-5.82,12.754-8.752,20.753-8.752h59.027c7.986,0,14.902,2.939,20.753,8.752
			c5.838,5.857,8.764,12.773,8.764,20.754V529.6v28.875c0,2.186-0.257,4.266-0.691,6.285h117.442c4.756,0,8.881-1.744,12.362-5.221
			c3.477-3.482,5.221-7.602,5.221-12.355V90.172c0-4.755-1.744-8.874-5.221-12.356C467.029,74.34,462.911,72.602,458.149,72.602z
			 M428.511,404.58c-2.112,2.113-4.608,3.164-7.497,3.164h-21.328c-2.889,0-5.393-1.051-7.504-3.164
			c-2.111-2.111-3.164-4.607-3.164-7.496v-21.328c0-2.883,1.053-5.385,3.164-7.496c2.111-2.105,4.608-3.172,7.504-3.172h21.328
			c2.889,0,5.385,1.066,7.497,3.172c2.111,2.117,3.17,4.613,3.17,7.496v21.328C431.681,399.973,430.622,402.477,428.511,404.58z
			 M431.681,461.068v21.328c0,2.895-1.059,5.398-3.17,7.498c-2.112,2.117-4.608,3.164-7.497,3.164h-21.328
			c-2.889,0-5.393-1.047-7.504-3.164c-2.111-2.105-3.164-4.604-3.164-7.498v-21.328c0-2.883,1.053-5.385,3.164-7.496
			c2.111-2.105,4.608-3.164,7.504-3.164h21.328c2.889,0,5.385,1.059,7.497,3.164C430.622,455.689,431.681,458.186,431.681,461.068z
			 M428.511,319.262c-2.112,2.117-4.608,3.17-7.497,3.17h-21.328c-2.889,0-5.393-1.053-7.504-3.17
			c-2.111-2.105-3.164-4.602-3.164-7.496v-21.322c0-2.889,1.053-5.393,3.164-7.498c2.111-2.111,4.608-3.169,7.504-3.169h21.328
			c2.889,0,5.385,1.059,7.497,3.169c2.111,2.111,3.17,4.609,3.17,7.498v21.322C431.681,314.66,430.622,317.162,428.511,319.262z
			 M428.511,233.949c-2.112,2.118-4.608,3.17-7.497,3.17h-21.328c-2.889,0-5.393-1.053-7.504-3.17
			c-2.111-2.105-3.164-4.602-3.164-7.497v-21.328c0-2.882,1.053-5.386,3.164-7.497c2.111-2.105,4.608-3.164,7.504-3.164h21.328
			c2.889,0,5.385,1.059,7.497,3.164c2.111,2.118,3.17,4.615,3.17,7.497v21.328C431.681,229.347,430.622,231.85,428.511,233.949z
			 M428.511,148.636c-2.112,2.118-4.608,3.164-7.497,3.164h-21.328c-2.889,0-5.393-1.046-7.504-3.164
			c-2.111-2.105-3.164-4.602-3.164-7.497v-21.329c0-2.882,1.053-5.385,3.164-7.497c2.111-2.105,4.608-3.164,7.504-3.164h21.328
			c2.889,0,5.385,1.059,7.497,3.164c2.111,2.117,3.17,4.614,3.17,7.497v21.329C431.681,144.034,430.622,146.537,428.511,148.636z
			 M303.705,205.124c0-2.882,1.053-5.386,3.164-7.497c2.111-2.105,4.608-3.164,7.497-3.164h21.328c2.883,0,5.38,1.059,7.497,3.164
			c2.111,2.118,3.164,4.615,3.164,7.497v21.328c0,2.895-1.053,5.398-3.164,7.497c-2.117,2.118-4.614,3.17-7.497,3.17h-21.328
			c-2.889,0-5.386-1.053-7.497-3.17c-2.111-2.105-3.164-4.602-3.164-7.497V205.124z M303.705,290.443
			c0-2.889,1.053-5.393,3.164-7.498c2.111-2.111,4.608-3.169,7.497-3.169h21.328c2.883,0,5.38,1.059,7.497,3.169
			c2.111,2.111,3.164,4.609,3.164,7.498v21.322c0,2.895-1.053,5.396-3.164,7.496c-2.117,2.117-4.614,3.17-7.497,3.17h-21.328
			c-2.889,0-5.386-1.053-7.497-3.17c-2.111-2.105-3.164-4.602-3.164-7.496V290.443z M172.572,404.58
			c-2.117,2.113-4.614,3.164-7.503,3.164h-21.328c-2.889,0-5.392-1.051-7.497-3.164c-2.118-2.111-3.17-4.607-3.17-7.496v-21.328
			c0-2.883,1.053-5.385,3.17-7.496c2.105-2.105,4.608-3.172,7.497-3.172h21.328c2.889,0,5.386,1.066,7.503,3.172
			c2.105,2.117,3.164,4.613,3.164,7.496v21.328C175.736,399.973,174.677,402.477,172.572,404.58z M175.736,461.068v21.328
			c0,2.895-1.059,5.398-3.164,7.498c-2.117,2.117-4.614,3.164-7.503,3.164h-21.328c-2.889,0-5.392-1.047-7.497-3.164
			c-2.118-2.105-3.17-4.604-3.17-7.498v-21.328c0-2.883,1.053-5.385,3.17-7.496c2.105-2.105,4.608-3.164,7.497-3.164h21.328
			c2.889,0,5.386,1.059,7.503,3.164C174.677,455.689,175.736,458.186,175.736,461.068z M172.572,319.262
			c-2.117,2.117-4.614,3.17-7.503,3.17h-21.328c-2.889,0-5.392-1.053-7.497-3.17c-2.118-2.105-3.17-4.602-3.17-7.496v-21.322
			c0-2.889,1.053-5.393,3.17-7.498c2.105-2.111,4.608-3.169,7.497-3.169h21.328c2.889,0,5.386,1.059,7.503,3.169
			c2.105,2.111,3.164,4.609,3.164,7.498v21.322C175.736,314.66,174.677,317.162,172.572,319.262z M172.572,233.949
			c-2.117,2.118-4.614,3.17-7.503,3.17h-21.328c-2.889,0-5.392-1.053-7.497-3.17c-2.118-2.105-3.17-4.602-3.17-7.497v-21.328
			c0-2.882,1.053-5.386,3.17-7.497c2.105-2.105,4.608-3.164,7.497-3.164h21.328c2.889,0,5.386,1.059,7.503,3.164
			c2.105,2.118,3.164,4.615,3.164,7.497v21.328C175.736,229.347,174.677,231.85,172.572,233.949z M172.572,148.636
			c-2.117,2.118-4.614,3.164-7.503,3.164h-21.328c-2.889,0-5.392-1.046-7.497-3.164c-2.118-2.105-3.17-4.602-3.17-7.497v-21.329
			c0-2.882,1.053-5.385,3.17-7.497c2.105-2.105,4.608-3.164,7.497-3.164h21.328c2.889,0,5.386,1.059,7.503,3.164
			c2.105,2.117,3.164,4.614,3.164,7.497v21.329C175.736,144.034,174.677,146.537,172.572,148.636z M261.049,397.084
			c0,2.889-1.059,5.393-3.164,7.496c-2.118,2.111-4.615,3.164-7.503,3.164h-21.329c-2.889,0-5.385-1.053-7.497-3.164
			c-2.112-2.111-3.164-4.607-3.164-7.496v-21.328c0-2.883,1.052-5.385,3.164-7.498c2.111-2.104,4.608-3.17,7.497-3.17h21.329
			c2.882,0,5.385,1.066,7.503,3.17c2.105,2.119,3.164,4.615,3.164,7.498V397.084z M261.049,311.766c0,2.895-1.059,5.396-3.164,7.496
			c-2.118,2.117-4.615,3.17-7.503,3.17h-21.329c-2.889,0-5.385-1.053-7.497-3.17c-2.112-2.105-3.164-4.602-3.164-7.496v-21.322
			c0-2.889,1.052-5.393,3.164-7.498c2.111-2.111,4.608-3.169,7.497-3.169h21.329c2.882,0,5.385,1.059,7.503,3.169
			c2.105,2.111,3.164,4.609,3.164,7.498V311.766z M261.049,226.452c0,2.895-1.059,5.398-3.164,7.497
			c-2.118,2.118-4.615,3.17-7.503,3.17h-21.329c-2.889,0-5.385-1.053-7.497-3.17c-2.112-2.105-3.164-4.602-3.164-7.497v-21.328
			c0-2.882,1.052-5.386,3.164-7.497c2.111-2.105,4.608-3.164,7.497-3.164h21.329c2.882,0,5.385,1.059,7.503,3.164
			c2.105,2.118,3.164,4.615,3.164,7.497V226.452z M335.7,407.744h-21.328c-2.889,0-5.386-1.051-7.497-3.164
			c-2.111-2.111-3.164-4.607-3.164-7.496v-21.328c0-2.883,1.053-5.385,3.164-7.496c2.111-2.105,4.608-3.172,7.497-3.172H335.7
			c2.883,0,5.38,1.066,7.497,3.172c2.111,2.117,3.164,4.613,3.164,7.496v21.328c0,2.889-1.053,5.393-3.164,7.496
			C341.08,406.691,338.583,407.744,335.7,407.744z"/>
		<path d="M218.417,141.439c5.043,4.29,10.912,6.561,17.711,6.561h22.295h47.919h22.289c6.793,0,12.662-2.271,17.711-6.561
			c0.631-0.533,1.292-0.979,1.897-1.579c5.429-5.428,8.146-11.964,8.146-19.608v-12.497V72.602V27.754
			c0-7.644-2.711-14.18-8.146-19.608C342.812,2.717,336.275,0,328.632,0h-92.504c-7.644,0-14.18,2.717-19.608,8.146
			c-5.428,5.428-8.146,11.964-8.146,19.608v44.847v35.153v12.497c0,7.644,2.711,14.18,8.146,19.608
			C217.125,140.46,217.792,140.901,218.417,141.439z M233.043,72.602V30.833c0-1.665,0.612-3.115,1.83-4.333s2.668-1.83,4.333-1.83
			h12.332c1.671,0,3.115,0.612,4.333,1.83c1.218,1.224,1.83,2.668,1.83,4.333v30.833h49.333V30.833c0-1.665,0.612-3.115,1.83-4.333
			s2.668-1.83,4.333-1.83h12.332c1.671,0,3.115,0.612,4.333,1.83c1.218,1.224,1.829,2.668,1.829,4.333v41.769v35.153v1.396v8.017
			c0,1.671-0.611,3.115-1.829,4.333c-1.225,1.224-2.669,1.83-4.333,1.83h-12.332c-1.671,0-3.115-0.606-4.333-1.83
			c-1.224-1.218-1.83-2.662-1.83-4.333v-5v-4.413v-21.42h-49.321v21.42v4.413v5c0,1.671-0.612,3.115-1.83,4.333
			c-1.224,1.224-2.668,1.83-4.333,1.83h-12.332c-1.671,0-3.115-0.606-4.333-1.83c-1.224-1.218-1.83-2.662-1.83-4.333v-8.017v-1.396
			V72.602H233.043z"/>
	</g>
</g>
<g>
</g>
<g>
</g>
<g>
</g>
<g>
</g>
<g>
</g>
<g>
</g>
<g>
</g>
<g>
</g>
<g>
</g>
<g>
</g>
<g>
</g>
<g>
</g>
<g>
</g>
<g>
</g>
<g>
</g>
</svg>
