<?xml version="1.0" encoding="UTF-8" standalone="no"?>
<svg width="387px" height="565px" viewBox="0 0 387 565" version="1.1" xmlns="http://www.w3.org/2000/svg" xmlns:xlink="http://www.w3.org/1999/xlink">
    <!-- Generator: Sketch 3.7.2 (28276) - http://www.bohemiancoding.com/sketch -->
    <title>hotel</title>
    <desc>Created with Sketch.</desc>
    <defs></defs>
    <g id="Page-1" stroke="none" stroke-width="1" fill="none" fill-rule="evenodd">
        <g id="hotel" fill="#FFFFFF">
            <g id="Group">
                <path d="M369.149,72.602 L285.734,72.602 L285.734,107.755 L285.734,120.252 C285.734,132.737 281.058,144.003 272.214,152.841 C263.37,161.684 252.098,166.36 239.625,166.36 L147.127,166.36 C134.655,166.36 123.388,161.684 114.544,152.847 C105.694,144.003 101.019,132.737 101.019,120.252 L101.019,107.755 L101.019,72.602 L17.603,72.602 C12.842,72.602 8.717,74.34 5.241,77.816 C1.764,81.304 0.02,85.423 0.02,90.172 L0.02,547.183 C0.02,551.937 1.758,556.062 5.241,559.538 C8.717,563.015 12.836,564.759 17.603,564.759 L135.04,564.759 C134.612,562.739 134.349,560.659 134.349,558.474 L134.349,529.6 L134.349,478.438 C134.349,470.458 137.256,463.542 143.107,457.684 C148.945,451.864 155.861,448.932 163.86,448.932 L222.887,448.932 C230.873,448.932 237.789,451.871 243.64,457.684 C249.478,463.541 252.404,470.457 252.404,478.438 L252.404,529.6 L252.404,558.475 C252.404,560.661 252.147,562.741 251.713,564.76 L369.155,564.76 C373.911,564.76 378.036,563.016 381.517,559.539 C384.994,556.057 386.738,551.937 386.738,547.184 L386.738,90.172 C386.738,85.417 384.994,81.298 381.517,77.816 C378.029,74.34 373.911,72.602 369.149,72.602 L369.149,72.602 Z M339.511,404.58 C337.399,406.693 334.903,407.744 332.014,407.744 L310.686,407.744 C307.797,407.744 305.293,406.693 303.182,404.58 C301.071,402.469 300.018,399.973 300.018,397.084 L300.018,375.756 C300.018,372.873 301.071,370.371 303.182,368.26 C305.293,366.155 307.79,365.088 310.686,365.088 L332.014,365.088 C334.903,365.088 337.399,366.154 339.511,368.26 C341.622,370.377 342.681,372.873 342.681,375.756 L342.681,397.084 C342.681,399.973 341.622,402.477 339.511,404.58 L339.511,404.58 Z M342.681,461.068 L342.681,482.396 C342.681,485.291 341.622,487.794 339.511,489.894 C337.399,492.011 334.903,493.058 332.014,493.058 L310.686,493.058 C307.797,493.058 305.293,492.011 303.182,489.894 C301.071,487.789 300.018,485.29 300.018,482.396 L300.018,461.068 C300.018,458.185 301.071,455.683 303.182,453.572 C305.293,451.467 307.79,450.408 310.686,450.408 L332.014,450.408 C334.903,450.408 337.399,451.467 339.511,453.572 C341.622,455.689 342.681,458.186 342.681,461.068 L342.681,461.068 Z M339.511,319.262 C337.399,321.379 334.903,322.432 332.014,322.432 L310.686,322.432 C307.797,322.432 305.293,321.379 303.182,319.262 C301.071,317.157 300.018,314.66 300.018,311.766 L300.018,290.444 C300.018,287.555 301.071,285.051 303.182,282.946 C305.293,280.835 307.79,279.777 310.686,279.777 L332.014,279.777 C334.903,279.777 337.399,280.836 339.511,282.946 C341.622,285.057 342.681,287.555 342.681,290.444 L342.681,311.766 C342.681,314.66 341.622,317.162 339.511,319.262 L339.511,319.262 Z M339.511,233.949 C337.399,236.067 334.903,237.119 332.014,237.119 L310.686,237.119 C307.797,237.119 305.293,236.066 303.182,233.949 C301.071,231.844 300.018,229.347 300.018,226.452 L300.018,205.124 C300.018,202.242 301.071,199.738 303.182,197.627 C305.293,195.522 307.79,194.463 310.686,194.463 L332.014,194.463 C334.903,194.463 337.399,195.522 339.511,197.627 C341.622,199.745 342.681,202.242 342.681,205.124 L342.681,226.452 C342.681,229.347 341.622,231.85 339.511,233.949 L339.511,233.949 Z M339.511,148.636 C337.399,150.754 334.903,151.8 332.014,151.8 L310.686,151.8 C307.797,151.8 305.293,150.754 303.182,148.636 C301.071,146.531 300.018,144.034 300.018,141.139 L300.018,119.81 C300.018,116.928 301.071,114.425 303.182,112.313 C305.293,110.208 307.79,109.149 310.686,109.149 L332.014,109.149 C334.903,109.149 337.399,110.208 339.511,112.313 C341.622,114.43 342.681,116.927 342.681,119.81 L342.681,141.139 C342.681,144.034 341.622,146.537 339.511,148.636 L339.511,148.636 Z M214.705,205.124 C214.705,202.242 215.758,199.738 217.869,197.627 C219.98,195.522 222.477,194.463 225.366,194.463 L246.694,194.463 C249.577,194.463 252.074,195.522 254.191,197.627 C256.302,199.745 257.355,202.242 257.355,205.124 L257.355,226.452 C257.355,229.347 256.302,231.85 254.191,233.949 C252.074,236.067 249.577,237.119 246.694,237.119 L225.366,237.119 C222.477,237.119 219.98,236.066 217.869,233.949 C215.758,231.844 214.705,229.347 214.705,226.452 L214.705,205.124 L214.705,205.124 Z M214.705,290.443 C214.705,287.554 215.758,285.05 217.869,282.945 C219.98,280.834 222.477,279.776 225.366,279.776 L246.694,279.776 C249.577,279.776 252.074,280.835 254.191,282.945 C256.302,285.056 257.355,287.554 257.355,290.443 L257.355,311.765 C257.355,314.66 256.302,317.161 254.191,319.261 C252.074,321.378 249.577,322.431 246.694,322.431 L225.366,322.431 C222.477,322.431 219.98,321.378 217.869,319.261 C215.758,317.156 214.705,314.659 214.705,311.765 L214.705,290.443 L214.705,290.443 Z M83.572,404.58 C81.455,406.693 78.958,407.744 76.069,407.744 L54.741,407.744 C51.852,407.744 49.349,406.693 47.244,404.58 C45.126,402.469 44.074,399.973 44.074,397.084 L44.074,375.756 C44.074,372.873 45.127,370.371 47.244,368.26 C49.349,366.155 51.852,365.088 54.741,365.088 L76.069,365.088 C78.958,365.088 81.455,366.154 83.572,368.26 C85.677,370.377 86.736,372.873 86.736,375.756 L86.736,397.084 C86.736,399.973 85.677,402.477 83.572,404.58 L83.572,404.58 Z M86.736,461.068 L86.736,482.396 C86.736,485.291 85.677,487.794 83.572,489.894 C81.455,492.011 78.958,493.058 76.069,493.058 L54.741,493.058 C51.852,493.058 49.349,492.011 47.244,489.894 C45.126,487.789 44.074,485.29 44.074,482.396 L44.074,461.068 C44.074,458.185 45.127,455.683 47.244,453.572 C49.349,451.467 51.852,450.408 54.741,450.408 L76.069,450.408 C78.958,450.408 81.455,451.467 83.572,453.572 C85.677,455.689 86.736,458.186 86.736,461.068 L86.736,461.068 Z M83.572,319.262 C81.455,321.379 78.958,322.432 76.069,322.432 L54.741,322.432 C51.852,322.432 49.349,321.379 47.244,319.262 C45.126,317.157 44.074,314.66 44.074,311.766 L44.074,290.444 C44.074,287.555 45.127,285.051 47.244,282.946 C49.349,280.835 51.852,279.777 54.741,279.777 L76.069,279.777 C78.958,279.777 81.455,280.836 83.572,282.946 C85.677,285.057 86.736,287.555 86.736,290.444 L86.736,311.766 C86.736,314.66 85.677,317.162 83.572,319.262 L83.572,319.262 Z M83.572,233.949 C81.455,236.067 78.958,237.119 76.069,237.119 L54.741,237.119 C51.852,237.119 49.349,236.066 47.244,233.949 C45.126,231.844 44.074,229.347 44.074,226.452 L44.074,205.124 C44.074,202.242 45.127,199.738 47.244,197.627 C49.349,195.522 51.852,194.463 54.741,194.463 L76.069,194.463 C78.958,194.463 81.455,195.522 83.572,197.627 C85.677,199.745 86.736,202.242 86.736,205.124 L86.736,226.452 C86.736,229.347 85.677,231.85 83.572,233.949 L83.572,233.949 Z M83.572,148.636 C81.455,150.754 78.958,151.8 76.069,151.8 L54.741,151.8 C51.852,151.8 49.349,150.754 47.244,148.636 C45.126,146.531 44.074,144.034 44.074,141.139 L44.074,119.81 C44.074,116.928 45.127,114.425 47.244,112.313 C49.349,110.208 51.852,109.149 54.741,109.149 L76.069,109.149 C78.958,109.149 81.455,110.208 83.572,112.313 C85.677,114.43 86.736,116.927 86.736,119.81 L86.736,141.139 C86.736,144.034 85.677,146.537 83.572,148.636 L83.572,148.636 Z M172.049,397.084 C172.049,399.973 170.99,402.477 168.885,404.58 C166.767,406.691 164.27,407.744 161.382,407.744 L140.053,407.744 C137.164,407.744 134.668,406.691 132.556,404.58 C130.444,402.469 129.392,399.973 129.392,397.084 L129.392,375.756 C129.392,372.873 130.444,370.371 132.556,368.258 C134.667,366.154 137.164,365.088 140.053,365.088 L161.382,365.088 C164.264,365.088 166.767,366.154 168.885,368.258 C170.99,370.377 172.049,372.873 172.049,375.756 L172.049,397.084 L172.049,397.084 Z M172.049,311.766 C172.049,314.661 170.99,317.162 168.885,319.262 C166.767,321.379 164.27,322.432 161.382,322.432 L140.053,322.432 C137.164,322.432 134.668,321.379 132.556,319.262 C130.444,317.157 129.392,314.66 129.392,311.766 L129.392,290.444 C129.392,287.555 130.444,285.051 132.556,282.946 C134.667,280.835 137.164,279.777 140.053,279.777 L161.382,279.777 C164.264,279.777 166.767,280.836 168.885,282.946 C170.99,285.057 172.049,287.555 172.049,290.444 L172.049,311.766 L172.049,311.766 Z M172.049,226.452 C172.049,229.347 170.99,231.85 168.885,233.949 C166.767,236.067 164.27,237.119 161.382,237.119 L140.053,237.119 C137.164,237.119 134.668,236.066 132.556,233.949 C130.444,231.844 129.392,229.347 129.392,226.452 L129.392,205.124 C129.392,202.242 130.444,199.738 132.556,197.627 C134.667,195.522 137.164,194.463 140.053,194.463 L161.382,194.463 C164.264,194.463 166.767,195.522 168.885,197.627 C170.99,199.745 172.049,202.242 172.049,205.124 L172.049,226.452 L172.049,226.452 Z M246.7,407.744 L225.372,407.744 C222.483,407.744 219.986,406.693 217.875,404.58 C215.764,402.469 214.711,399.973 214.711,397.084 L214.711,375.756 C214.711,372.873 215.764,370.371 217.875,368.26 C219.986,366.155 222.483,365.088 225.372,365.088 L246.7,365.088 C249.583,365.088 252.08,366.154 254.197,368.26 C256.308,370.377 257.361,372.873 257.361,375.756 L257.361,397.084 C257.361,399.973 256.308,402.477 254.197,404.58 C252.08,406.691 249.583,407.744 246.7,407.744 L246.7,407.744 Z" id="Shape"></path>
                <path d="M129.417,141.439 C134.46,145.729 140.329,148 147.128,148 L169.423,148 L217.342,148 L239.631,148 C246.424,148 252.293,145.729 257.342,141.439 C257.973,140.906 258.634,140.46 259.239,139.86 C264.668,134.432 267.385,127.896 267.385,120.252 L267.385,107.755 L267.385,72.602 L267.385,27.754 C267.385,20.11 264.674,13.574 259.239,8.146 C253.812,2.717 247.275,0 239.632,0 L147.128,0 C139.484,0 132.948,2.717 127.52,8.146 C122.092,13.574 119.374,20.11 119.374,27.754 L119.374,72.601 L119.374,107.754 L119.374,120.251 C119.374,127.895 122.085,134.431 127.52,139.859 C128.125,140.46 128.792,140.901 129.417,141.439 L129.417,141.439 Z M144.043,72.602 L144.043,30.833 C144.043,29.168 144.655,27.718 145.873,26.5 C147.091,25.282 148.541,24.67 150.206,24.67 L162.538,24.67 C164.209,24.67 165.653,25.282 166.871,26.5 C168.089,27.724 168.701,29.168 168.701,30.833 L168.701,61.666 L218.034,61.666 L218.034,30.833 C218.034,29.168 218.646,27.718 219.864,26.5 C221.082,25.282 222.532,24.67 224.197,24.67 L236.529,24.67 C238.2,24.67 239.644,25.282 240.862,26.5 C242.08,27.724 242.691,29.168 242.691,30.833 L242.691,72.602 L242.691,107.755 L242.691,109.151 L242.691,117.168 C242.691,118.839 242.08,120.283 240.862,121.501 C239.637,122.725 238.193,123.331 236.529,123.331 L224.197,123.331 C222.526,123.331 221.082,122.725 219.864,121.501 C218.64,120.283 218.034,118.839 218.034,117.168 L218.034,112.168 L218.034,107.755 L218.034,86.335 L168.713,86.335 L168.713,107.755 L168.713,112.168 L168.713,117.168 C168.713,118.839 168.101,120.283 166.883,121.501 C165.659,122.725 164.215,123.331 162.55,123.331 L150.218,123.331 C148.547,123.331 147.103,122.725 145.885,121.501 C144.661,120.283 144.055,118.839 144.055,117.168 L144.055,109.151 L144.055,107.755 L144.055,72.602 L144.043,72.602 L144.043,72.602 Z" id="Shape"></path>
            </g>
        </g>
    </g>
</svg>